/* XPM */
static char * tfwbasket_xpm[] = {
"24 24 111 2",
"  	c None",
". 	c #C4C4C4",
"+ 	c #A9A9A9",
"@ 	c #A3A3A3",
"# 	c #CECECE",
"$ 	c #919191",
"% 	c #B1B1B1",
"& 	c #DBDBDB",
"* 	c #A2A2A2",
"= 	c #B7B7B7",
"- 	c #C3C3C3",
"; 	c #9D9D9D",
"> 	c #929292",
", 	c #C6C6C6",
"' 	c #848484",
") 	c #979797",
"! 	c #949494",
"~ 	c #9A9A9A",
"{ 	c #A4A4A4",
"] 	c #B3B3B3",
"^ 	c #C1C1C1",
"/ 	c #D5D5D5",
"( 	c #CFCFCF",
"_ 	c #898989",
": 	c #818181",
"< 	c #A0A0A0",
"[ 	c #AAAAAA",
"} 	c #B8B8B8",
"| 	c #BDBDBD",
"1 	c #BFBFBF",
"2 	c #D3D3D3",
"3 	c #E0E0E0",
"4 	c #ABABAB",
"5 	c #B9B9B9",
"6 	c #A5A5A5",
"7 	c #CACACA",
"8 	c #D2D2D2",
"9 	c #C7C7C7",
"0 	c #B4B4B4",
"a 	c #868686",
"b 	c #9B9B9B",
"c 	c #A6A6A6",
"d 	c #B0B0B0",
"e 	c #BBBBBB",
"f 	c #C2C2C2",
"g 	c #DFDFDF",
"h 	c #D6D6D6",
"i 	c #8B8B8B",
"j 	c #A1A1A1",
"k 	c #BEBEBE",
"l 	c #CCCCCC",
"m 	c #CDCDCD",
"n 	c #858585",
"o 	c #BABABA",
"p 	c #CBCBCB",
"q 	c #989898",
"r 	c #AFAFAF",
"s 	c #ACACAC",
"t 	c #D7D7D7",
"u 	c #D1D1D1",
"v 	c #DDDDDD",
"w 	c #D9D9D9",
"x 	c #BCBCBC",
"y 	c #AEAEAE",
"z 	c #959595",
"A 	c #C5C5C5",
"B 	c #B2B2B2",
"C 	c #9F9F9F",
"D 	c #D4D4D4",
"E 	c #969696",
"F 	c #D8D8D8",
"G 	c #999999",
"H 	c #C8C8C8",
"I 	c #D0D0D0",
"J 	c #E7E7E7",
"K 	c #E6E6E6",
"L 	c #DADADA",
"M 	c #C0C0C0",
"N 	c #C9C9C9",
"O 	c #E2E2E2",
"P 	c #666666",
"Q 	c #6E6E6E",
"R 	c #777777",
"S 	c #7B7B7B",
"T 	c #6D6D6D",
"U 	c #696969",
"V 	c #656565",
"W 	c #757575",
"X 	c #7E7E7E",
"Y 	c #AFAEAE",
"Z 	c #B5B5B5",
"` 	c #727272",
" .	c #424242",
"..	c #505050",
"+.	c #6C6B6B",
"@.	c #828080",
"#.	c #757474",
"$.	c #BCBBBB",
"%.	c #ADABAB",
"&.	c #B8B7B7",
"*.	c #A6A5A5",
"=.	c #BEBDBD",
"-.	c #B1B0B0",
";.	c #868585",
">.	c #BBBABA",
",.	c #7D7D7D",
"'.	c #ADACAC",
").	c #878787",
"!.	c #6A6A6A",
"~.	c #464646",
"{.	c #8F8F8F",
"          .                                     ",
"        + @ #                                   ",
"      $ %   &                                   ",
"    * =     -                                   ",
"    ;       >                                   ",
"    ,       ' ) ! ~ { ] ^                       ",
"    / ( _   :           < [ } | 1 , 2 3         ",
"    4 %   4 _ 5         6 7         8 9 ^ = 0 9 ",
"      a $ > ) b c d e ^ f / g       h         4 ",
"      i   ; $ j     + % = e | k 8 l 7 m l 8 } 5 ",
"      n o 6   ~     =   o 8   . 3   p     + 1 0 ",
"      ' $ q < c r s 5 m l 8 t u & v w     d - x ",
"      a ^   y z [ 6 x 5 } k , , A o % r B + f , ",
"        } }   C     9   k /   . w   9     % D . ",
"        E 4 B 0 - 1 k # m F w f l # l F & % u 9 ",
"        G   k u H f 1 7 m I m e k o 5 } = r ( F ",
"        ! 3 J K K t m K K K K 9 L K K K K } J   ",
"        ~ r M A N - | t / u m ] k p p l l ] O   ",
"          P Q R S e x ; T U P V V W X Y Z $     ",
"          P ` ' S o n  .      ..+.@.#.$.a       ",
"          T %.&.q E           ` *.=.-.;.        ",
"          i M >.E ,.          ,.l &.'.).        ",
"          !.E $ i             ~.z > {.          ",
"                                                "};
