/* XPM */
static char * tfwload_xpm[] = {
"24 24 13 1",
" 	c None",
".	c #A6CAF0",
"+	c #80A0C0",
"@	c #A0C0C0",
"#	c #6080C0",
"$	c #E0C040",
"%	c #E0C080",
"&	c #E0E080",
"*	c #E0A040",
"=	c #C0C080",
"-	c #C0DCC0",
";	c #E0E040",
">	c #E08040",
"                        ",
"                        ",
"                        ",
"                        ",
"          ....+++@      ",
"          .      .+     ",
"          . .... ..+    ",
"          . ....   #    ",
"          .   .... #    ",
"    $%%%%%.    ... #    ",
"    $     .     .. #    ",
"    $ &&&&#      . #    ",
"    * &&%********* #    ",
"    * %**%       * #    ",
"    *     &&&&&& * #    ",
"    * &&&&&&&%==-*##    ",
"    * &&&&&&&&;; *      ",
"    * &&&&&&&;;; *      ",
"    * &&&&&&&&&& *      ",
"    *>>>>>>>>>>>>*      ",
"                        ",
"                        ",
"                        ",
"                        "};
