/* XPM */
static char * tfwprior_xpm[] = {
"24 24 99 2",
"  	c None",
". 	c #05070C",
"+ 	c #070A12",
"@ 	c #131C2F",
"# 	c #090C14",
"$ 	c #070C13",
"% 	c #2F4776",
"& 	c #4E75C4",
"* 	c #090E17",
"= 	c #0B111D",
"- 	c #4D74C0",
"; 	c #6599FF",
"> 	c #39568F",
", 	c #080B13",
"' 	c #1D2B47",
") 	c #6090F0",
"! 	c #243558",
"~ 	c #080C15",
"{ 	c #3B5893",
"] 	c #6294F8",
"^ 	c #121A2B",
"/ 	c #090D16",
"( 	c #0B101B",
"_ 	c #0E1421",
": 	c #121A2C",
"< 	c #1B2843",
"[ 	c #25385D",
"} 	c #050A0E",
"| 	c #0F1626",
"1 	c #5580D4",
"2 	c #5F8FEE",
"3 	c #293E67",
"4 	c #213152",
"5 	c #2D4370",
"6 	c #37538A",
"7 	c #4263A5",
"8 	c #4D74C1",
"9 	c #5985DE",
"0 	c #5D8BE8",
"a 	c #6293F5",
"b 	c #6598FD",
"c 	c #080B14",
"d 	c #273960",
"e 	c #6495F9",
"f 	c #6496FA",
"g 	c #090D17",
"h 	c #4669AE",
"i 	c #04070C",
"j 	c #0F1727",
"k 	c #3C5A96",
"l 	c #121C2E",
"m 	c #5B8AE7",
"n 	c #101A2A",
"o 	c #4467AA",
"p 	c #6599FE",
"q 	c #2B406B",
"r 	c #1F2F4E",
"s 	c #2B416C",
"t 	c #365087",
"u 	c #4161A2",
"v 	c #4C71BD",
"w 	c #5681D8",
"x 	c #6192F3",
"y 	c #080B12",
"z 	c #131D2F",
"A 	c #233558",
"B 	c #608FF0",
"C 	c #141D30",
"D 	c #070B11",
"E 	c #070A11",
"F 	c #090D15",
"G 	c #0C121E",
"H 	c #0F1726",
"I 	c #101727",
"J 	c #0F1827",
"K 	c #131C2E",
"L 	c #172138",
"M 	c #1E2C49",
"N 	c #0C111C",
"O 	c #111B2C",
"P 	c #4B70BC",
"Q 	c #6496FB",
"R 	c #2A406A",
"S 	c #0A0E18",
"T 	c #080D15",
"U 	c #070B12",
"V 	c #131B2E",
"W 	c #2C426C",
"X 	c #6294F7",
"Y 	c #3F5E9D",
"Z 	c #090C15",
"` 	c #0E1523",
" .	c #141E31",
"..	c #4161A3",
"+.	c #0A0F18",
"@.	c #0B101C",
"#.	c #030508",
"$.	c #080C14",
"%.	c #05070B",
"                                                ",
"                                                ",
"                                                ",
"                        .                       ",
"                    + @ #                       ",
"                  $ % & *                       ",
"                = - ; >                         ",
"            , ' ) ; ; !                         ",
"          ~ { ; ; ; ] ^       / * / ( _ : < [ + ",
"      } | 1 ; ; ; ; 2 3 4 5 6 7 8 9 0 2 a b 2 _ ",
"    c d e ; ; ; ; ; ; f ; ; ; ; ; ; ; ; ; ; 2 _ ",
"  g h ; ; ; ; ; ; ; ; ; ; ; ; ; ; ; ; ; ; ; 2 _ ",
"i j k ; ; ; ; ; ; ; ; ; ; ; ; ; ; ; ; ; ; ; 2 _ ",
"  , l ' m ; ; ; ; ; ; ; ; ; ; ; ; ; ; ; ; ; 2 _ ",
"      / n o ; ; ; ; p q r s t u v w x ; ; ; 2 _ ",
"        y z A B ; ; 2 C y D E F G H I J K L M . ",
"            N O P ; Q R                   S T   ",
"              U V W X Y Z                       ",
"                $ `  ...+.                      ",
"                    U @.#.                      ",
"                      $.%.                      ",
"                                                ",
"                                                ",
"                                                "};
