/* XPM */
static char * tfwtrash_xpm[] = {
"18 23 303 2",
"  	c None",
". 	c #848686",
"+ 	c #696969",
"@ 	c #4F6380",
"# 	c #5B6E8A",
"$ 	c #6C7D99",
"% 	c #9098A4",
"& 	c #9AA2B0",
"* 	c #D0D0D0",
"= 	c #B6B6B6",
"- 	c #CECFCF",
"; 	c #8C9FC1",
"> 	c #7C8FB3",
", 	c #6A7EA1",
"' 	c #596E96",
") 	c #324E81",
"! 	c #617A9B",
"~ 	c #89A2C8",
"{ 	c #ADBDD8",
"] 	c #B6C4DB",
"^ 	c #B4B6B9",
"/ 	c #E9ECED",
"( 	c #D6D6D6",
"_ 	c #EBECEC",
": 	c #F4F4F4",
"< 	c #E5E5E5",
"[ 	c #B9BBBE",
"} 	c #D7E0EC",
"| 	c #D3DDEA",
"1 	c #CED9E7",
"2 	c #C3D3E5",
"3 	c #6A87BF",
"4 	c #182B4A",
"5 	c #5B7991",
"6 	c #97ACCF",
"7 	c #A3B5D3",
"8 	c #AEBED9",
"9 	c #B1BDD1",
"0 	c #C4C6C7",
"a 	c #E3E5E6",
"b 	c #F8F9F9",
"c 	c #ECEDED",
"d 	c #E6E6E6",
"e 	c #FCFCFC",
"f 	c #E4E7E8",
"g 	c #B5B9BF",
"h 	c #D0DAE6",
"i 	c #C9D6E5",
"j 	c #ADC1E0",
"k 	c #2D4E99",
"l 	c #6A99B3",
"m 	c #9ACAEC",
"n 	c #9EBEDF",
"o 	c #AFBED9",
"p 	c #A3A8AF",
"q 	c #BDBEBE",
"r 	c #CACACB",
"s 	c #DEDFE0",
"t 	c #D0D1D2",
"u 	c #D9DBDB",
"v 	c #DBDCDD",
"w 	c #E0E1E2",
"x 	c #DBDBDC",
"y 	c #BFC9D6",
"z 	c #A4BBE6",
"A 	c #6B90E3",
"B 	c #3E6EE0",
"C 	c #3A5CB4",
"D 	c #A2C3D5",
"E 	c #76BDE7",
"F 	c #73B7E7",
"G 	c #7BB6E9",
"H 	c #7EB4E8",
"I 	c #7CACE2",
"J 	c #89B3E9",
"K 	c #8EB4E8",
"L 	c #95B7EA",
"M 	c #8CAEE5",
"N 	c #769DE2",
"O 	c #608CE1",
"P 	c #4A7ADF",
"Q 	c #376ADF",
"R 	c #3162DE",
"S 	c #3060DD",
"T 	c #3261DD",
"U 	c #697DA8",
"V 	c #A0A3A5",
"W 	c #C5E3F5",
"X 	c #8CC2EB",
"Y 	c #69ACE5",
"Z 	c #63A5E4",
"` 	c #5E9DE3",
" .	c #5996E3",
"..	c #548FE2",
"+.	c #4E88E1",
"@.	c #4981E0",
"#.	c #447AE0",
"$.	c #3E73DF",
"%.	c #396CDE",
"&.	c #3A69DD",
"*.	c #4E77E0",
"=.	c #7494E2",
"-.	c #B9C8E6",
";.	c #6D737B",
">.	c #7D7E80",
",.	c #FDFDFE",
"'.	c #F7FAFD",
").	c #E8F1FB",
"!.	c #CDDBEC",
"~.	c #B2C6E0",
"{.	c #A5BEE2",
"].	c #92AFDF",
"^.	c #89A5D9",
"/.	c #99AFD7",
"(.	c #ABB9D4",
"_.	c #CCD5E8",
":.	c #DDE4EE",
"<.	c #D8E0EC",
"[.	c #D3DCE9",
"}.	c #CED8E7",
"|.	c #646971",
"1.	c #565859",
"2.	c #FAFBFD",
"3.	c #FBFCFD",
"4.	c #F9FAFB",
"5.	c #E9E9E9",
"6.	c #D8DADB",
"7.	c #C5C7C8",
"8.	c #D4D6D8",
"9.	c #D8DADF",
"0.	c #E2E7F0",
"a.	c #5B6167",
"b.	c #F8F9FC",
"c.	c #F8FAFC",
"d.	c #F9FAFC",
"e.	c #F9FBFC",
"f.	c #E6E7E8",
"g.	c #D6D8DA",
"h.	c #DEE1E7",
"i.	c #DFE3EA",
"j.	c #E2E8F1",
"k.	c #52585E",
"l.	c #EDEFF2",
"m.	c #F6F8FB",
"n.	c #F7F9FB",
"o.	c #F7F9FC",
"p.	c #F6F3F6",
"q.	c #E9CFD0",
"r.	c #FAFBFC",
"s.	c #F1F4F8",
"t.	c #ECEFF5",
"u.	c #D6B3B6",
"v.	c #E1E6EF",
"w.	c #4A4D53",
"x.	c #DADCE1",
"y.	c #F4F6FA",
"z.	c #F5F7FA",
"A.	c #E4C4C5",
"B.	c #D55245",
"C.	c #DEA4A1",
"D.	c #F4F6FB",
"E.	c #D28D8B",
"F.	c #CF5146",
"G.	c #DEDAE2",
"H.	c #404348",
"I.	c #C2C5C9",
"J.	c #F2F4F8",
"K.	c #F3F5F9",
"L.	c #DBA6A4",
"M.	c #D55144",
"N.	c #D99C9A",
"O.	c #D89C99",
"P.	c #D35144",
"Q.	c #D8B2B4",
"R.	c #333539",
"S.	c #A7AAAE",
"T.	c #F0F3F7",
"U.	c #F2F5F9",
"V.	c #F4F5FA",
"W.	c #DBA7A7",
"X.	c #D45143",
"Y.	c #D45144",
"Z.	c #D9ACAC",
"`.	c #E7ECF3",
" +	c #919498",
".+	c #EEF1F6",
"++	c #EFF2F7",
"@+	c #F0F3F8",
"#+	c #EFF2F8",
"$+	c #EEF1F7",
"%+	c #DEB3B3",
"&+	c #D24E40",
"*+	c #D4A4A1",
"=+	c #DEE2E7",
"-+	c #DBE0E7",
";+	c #D7DDE5",
">+	c #D5DDE8",
",+	c #D2DBE8",
"'+	c #7B7D81",
")+	c #EAEEF5",
"!+	c #EAEFF5",
"~+	c #EAEFF6",
"{+	c #ECEFF6",
"]+	c #DEB7B8",
"^+	c #D45245",
"/+	c #CC8987",
"(+	c #C88A86",
"_+	c #D24E41",
":+	c #D5A6A5",
"<+	c #E3E7ED",
"[+	c #DDE1E7",
"}+	c #DCE1E8",
"|+	c #D2D8E1",
"1+	c #C8D1E0",
"2+	c #595C5F",
"3+	c #E5EAF2",
"4+	c #E9EEF5",
"5+	c #E1E1E7",
"6+	c #CA574E",
"7+	c #D28986",
"8+	c #E4E6EA",
"9+	c #DDDFE1",
"0+	c #D2928F",
"a+	c #CC4C3F",
"b+	c #D9CCD0",
"c+	c #DFE4EA",
"d+	c #D6DAE0",
"e+	c #D0D6DF",
"f+	c #BBC5D2",
"g+	c #444549",
"h+	c #E4E9F0",
"i+	c #D6DADE",
"j+	c #E6E8EC",
"k+	c #E3D7DA",
"l+	c #EDEEF1",
"m+	c #E9EAED",
"n+	c #E9ECEF",
"o+	c #CFB4B7",
"p+	c #E1E4E9",
"q+	c #E0E4EA",
"r+	c #D2D8DF",
"s+	c #AEB7C4",
"t+	c #E2E7EE",
"u+	c #DEDFE4",
"v+	c #E4E5E9",
"w+	c #E1E3E6",
"x+	c #E9ECF0",
"y+	c #DCDEE2",
"z+	c #E2E5E9",
"A+	c #DDE1E5",
"B+	c #DBDFE5",
"C+	c #CFD3D8",
"D+	c #D3D7DD",
"E+	c #D6DCE4",
"F+	c #A1A9B3",
"G+	c #DDE2E9",
"H+	c #DADEE4",
"I+	c #E7EBEF",
"J+	c #E8EAEE",
"K+	c #DCDEE1",
"L+	c #DFE1E4",
"M+	c #E1E2E5",
"N+	c #EBEDF1",
"O+	c #E5E7EA",
"P+	c #E0E4E9",
"Q+	c #CFD3D7",
"R+	c #D0D4DC",
"S+	c #9AA0AA",
"T+	c #A0A5AB",
"U+	c #D2DBE6",
"V+	c #DCE1E6",
"W+	c #E9ECF1",
"X+	c #E2E6EB",
"Y+	c #DFE3E7",
"Z+	c #D8DBDF",
"`+	c #D7DADE",
" @	c #DFE2E5",
".@	c #E4E7EA",
"+@	c #E6E9ED",
"@@	c #DADDE1",
"#@	c #D5D8DD",
"$@	c #DEE2EB",
"%@	c #61656C",
"&@	c #969AA0",
"*@	c #DAE0E7",
"=@	c #DCE0E7",
"-@	c #D7DBE1",
";@	c #D4D9DF",
">@	c #DBE2EC",
",@	c #DDE3EC",
"'@	c #DBE1E7",
")@	c #D6DBE2",
"!@	c #D8DDE5",
"~@	c #B8BEC5",
"{@	c #505357",
"]@	c #333334",
"^@	c #5E5E61",
"/@	c #818285",
"(@	c #9EA0A4",
"_@	c #ABAFB4",
":@	c #898D93",
"<@	c #65696C",
"[@	c #2F3133",
"                .   +               ",
"      @ # $ % & * = - ; > , ' )     ",
"  ! ~ { ] ^ / ( _ : < [ } | 1 2 3 4 ",
"5 6 7 8 9 0 a b c d e f g h 1 i j k ",
"l m n o p q r s t u v w x y z A B C ",
"D E F G H I J K L M N O P Q R S T U ",
"V W X Y Z `  ...+.@.#.$.%.&.*.=.-.;.",
">.,.,.'.).!.~.{.].^./.(._.:.<.[.}.|.",
"1.2.2.3.3.4.5.w 6.7.8.9.0.:.<.[.}.a.",
"  b.c.d.e.2.2.4.f.g.h.i.j.:.<.[.}.k.",
"  l.m.n.o.p.q.r.c.s.t.u.v.:.<.[.}.w.",
"  x.y.z.m.A.B.C.D.s.E.F.G.:.<.[.}.H.",
"  I.J.K.y.z.L.M.N.O.P.Q.j.:.<.[.}.R.",
"  S.T.s.U.V.K.W.X.Y.Z.`.j.:.<.[.}.  ",
"   +.+++@+#+$+%+X.&+*+=+-+;+>+,+}.  ",
"  '+)+!+~+{+]+^+/+(+_+:+<+[+}+|+1+  ",
"  2+3+`.4+5+6+7+8+9+0+a+b+c+d+e+f+  ",
"  g+3+h+i+j+k+l+j+m+n+o+p+q+d+r+s+  ",
"    3+t+u+v+w+x+n+y+z+A+B+C+D+E+F+  ",
"    G+H+I+J+K+L+M+N+l+O+z+P+Q+R+S+  ",
"    T+U+V+W+X+Y+Z+`+ @.@+@@@#@$@%@  ",
"      &@*@=@-@;@}+>@,@'@)@!@~@{@    ",
"          ]@^@/@(@_@:@<@[@          "};
