/* XPM */
static char * textsearchdbedit_xpm[] = {
"24 24 7 1",
" 	c None",
".	c #9D9DA1",
"+	c #716F64",
"@	c #F1EFE2",
"#	c #FFFFFF",
"$	c #89ADE8",
"%	c #386CBE",
"                        ",
"                        ",
"                        ",
"                        ",
"                        ",
" ...................... ",
" .++++++++++++++++++++@ ",
" .+###################@ ",
" .+########$$$$$$$$$$$@ ",
" .+########%%$$$$$$$$$@ ",
" .+########%%$$$$$$$$$@ ",
" .+###%%%##%%%%$$$%%%$@ ",
" .+#####%%#%%$%%$%%$$$@ ",
" .+###%%%%#%%$%%$%%$$$@ ",
" .+##%%#%%#%%$%%$%%$$$@ ",
" .+##%%#%%#%%$%%$%%$$$@ ",
" .+###%%%%#%%%%$$$%%%$@ ",
" .+########$$$$$$$$$$$@ ",
" .+###################@ ",
" .@@@@@@@@@@@@@@@@@@@@@ ",
"                        ",
"                        ",
"                        ",
"                        "};
