/* XPM */
static char * tfwrefresh_xpm[] = {
"24 24 200 2",
"  	c None",
". 	c #5580B5",
"+ 	c #638CBC",
"@ 	c #678FBD",
"# 	c #5B85B8",
"$ 	c #4A78B0",
"% 	c #6E92C1",
"& 	c #A7C0DE",
"* 	c #BAD0E7",
"= 	c #B8CFE7",
"- 	c #B6CDE6",
"; 	c #B5CCE5",
"> 	c #B3CBE5",
", 	c #99B6D7",
"' 	c #7296C3",
") 	c #4B7AB2",
"! 	c #3D6DA9",
"~ 	c #8FAED1",
"{ 	c #BDD2E8",
"] 	c #BAD0E8",
"^ 	c #B5CDE6",
"/ 	c #B0CAE4",
"( 	c #AEC8E3",
"_ 	c #ABC6E3",
": 	c #ADC6E3",
"< 	c #ABC5E2",
"[ 	c #799DC9",
"} 	c #7AA0C9",
"| 	c #4171AD",
"1 	c #7D9FC8",
"2 	c #BFD3E9",
"3 	c #B6CCE5",
"4 	c #B5CBE4",
"5 	c #B8CEE7",
"6 	c #B5CDE5",
"7 	c #ADC7E3",
"8 	c #AAC5E2",
"9 	c #A7C3E1",
"0 	c #A5C2E0",
"a 	c #A6C3E1",
"b 	c #94B4D8",
"c 	c #4E7AB4",
"d 	c #6E95C4",
"e 	c #97B8DC",
"f 	c #5480B4",
"g 	c #BDD2E9",
"h 	c #93B0D3",
"i 	c #6289BB",
"j 	c #4876B0",
"k 	c #4171AC",
"l 	c #4977B0",
"m 	c #5F88BA",
"n 	c #7398C4",
"o 	c #95B3D5",
"p 	c #AFC9E4",
"q 	c #A3BFE0",
"r 	c #93B6DA",
"s 	c #82AAD4",
"t 	c #7CA6D2",
"u 	c #8EB1D8",
"v 	c #83AAD5",
"w 	c #8EB2D8",
"x 	c #4170AD",
"y 	c #6D93C0",
"z 	c #7C9EC8",
"A 	c #4472AE",
"B 	c #527EB8",
"C 	c #517EB4",
"D 	c #83A7CE",
"E 	c #8CB0D8",
"F 	c #7DA7D3",
"G 	c #7AA4D2",
"H 	c #76A2D0",
"I 	c #739FCF",
"J 	c #8FB3D9",
"K 	c #6189B9",
"L 	c #4A77B2",
"M 	c #618CC2",
"N 	c #4E7CB6",
"O 	c #6088BA",
"P 	c #8BACD3",
"Q 	c #75A1D0",
"R 	c #729FCF",
"S 	c #91B4D9",
"T 	c #3B6BA8",
"U 	c #6C93C7",
"V 	c #5681BC",
"W 	c #4A79B2",
"X 	c #8EB0D6",
"Y 	c #78A3D1",
"Z 	c #73A0CF",
"` 	c #92B5DA",
" .	c #4170AC",
"..	c #4576AF",
"+.	c #8AACD3",
"@.	c #4171AE",
"#.	c #507CB3",
"$.	c #769AC5",
"%.	c #789BC8",
"&.	c #779CC8",
"*.	c #799DC8",
"=.	c #7D9FC9",
"-.	c #7EA0CA",
";.	c #3E6FAB",
">.	c #5C85B7",
",.	c #8AA9CE",
"'.	c #8AAACF",
").	c #88A9CE",
"!.	c #789CC6",
"~.	c #3A6AA8",
"{.	c #89A9CE",
"].	c #9CBCDD",
"^.	c #99BADC",
"/.	c #98B9DC",
"(.	c #5E87BA",
"_.	c #3B6DA9",
":.	c #89AACF",
"<.	c #9ABBDD",
"[.	c #A5C2E1",
"}.	c #6F95C4",
"|.	c #4173B1",
"1.	c #3C6EAC",
"2.	c #9ABADD",
"3.	c #A1BEDF",
"4.	c #8BABD1",
"5.	c #4978B0",
"6.	c #88ACD9",
"7.	c #4577B4",
"8.	c #3B6FAD",
"9.	c #87A7CE",
"0.	c #97B8DB",
"a.	c #95B7DB",
"b.	c #94B6DB",
"c.	c #89AFD7",
"d.	c #5F8CC0",
"e.	c #3F70AC",
"f.	c #5B8ECD",
"g.	c #ACC6E5",
"h.	c #9CBADD",
"i.	c #4274B2",
"j.	c #4B81BC",
"k.	c #86A6CD",
"l.	c #9BBBDD",
"m.	c #AAC4E1",
"n.	c #9EBDDE",
"o.	c #90B4D9",
"p.	c #719ECF",
"q.	c #6999CC",
"r.	c #6F9ECF",
"s.	c #739ECE",
"t.	c #5D89BD",
"u.	c #4D7CB5",
"v.	c #4275B2",
"w.	c #3F74B5",
"x.	c #4679B8",
"y.	c #4C7DB8",
"z.	c #477AB6",
"A.	c #548BC4",
"B.	c #4377B4",
"C.	c #A3C2DF",
"D.	c #4A78AF",
"E.	c #759AC6",
"F.	c #84ABD5",
"G.	c #6A9ACC",
"H.	c #6798CC",
"I.	c #6597CB",
"J.	c #6395CA",
"K.	c #6294CA",
"L.	c #5E91C8",
"M.	c #5A8FC8",
"N.	c #568CC6",
"O.	c #4F85C0",
"P.	c #3B6CA9",
"Q.	c #799DC7",
"R.	c #5983B7",
"S.	c #4979B1",
"T.	c #6D97C7",
"U.	c #74A1D0",
"V.	c #6697CC",
"W.	c #6295CA",
"X.	c #6093C9",
"Y.	c #5E92C9",
"Z.	c #5C91C8",
"`.	c #588EC7",
" +	c #578DC6",
".+	c #5187C3",
"++	c #3B6DAC",
"@+	c #4776B0",
"#+	c #5B87BD",
"$+	c #6696C8",
"%+	c #6898CC",
"&+	c #5F93CA",
"*+	c #5D90C8",
"=+	c #558AC4",
"-+	c #4378B4",
";+	c #3A6EAB",
">+	c #3E6FAD",
",+	c #4172AF",
"'+	c #4073B1",
")+	c #3D6EAE",
"                                                ",
"                . + @ # $                       ",
"            % & * = - ; > , ' )           !     ",
"          ~ { ] = ^ > / ( _ : < [       } |     ",
"        1 2 { 3 4 5 6 / 7 8 9 0 a b c d e |     ",
"      f g h i j k l m n o p q r s t u v w x     ",
"      y z A B !           C D E F G H I J x     ",
"      K L M N                 O P t Q R S x     ",
"      T U   V                 W X Y Z R ` x     ",
"       .                    ..+.t Q R R r @.    ",
"                            #.$.%.&.*.=.-.;.    ",
"      >.,.'.).'.).!.~.                          ",
"      {.].^././.9 (.                      _.    ",
"      :.<././.[.}.                      |.1.    ",
"      ).2././.3.4.5.              6.    7.8.    ",
"      9.2./.0.a.b.c.d.e.        f.g.h.i.j.      ",
"      k.l.m.n.o.p.q.r.s.t.u.v.w.x.y.z.A.B.      ",
"      k.C.D.E.F.G.H.I.J.K.I.H.J.L.M.N.O.P.      ",
"      Q.R.    S.T.U.V.W.X.Y.Z.M.`. +.+++        ",
"      ~.          @+#+$+%+J.&+*+=+-+;+          ",
"                        >+,+'+)+                ",
"                                                ",
"                                                ",
"                                                "};
