/* XPM */
static char * tfwzoomin_xpm[] = {
"18 24 165 2",
"  	c None",
". 	c #B0B6E4",
"+ 	c #B0B5E4",
"@ 	c #B1B3E3",
"# 	c #B0B6E5",
"$ 	c #AFB5E4",
"% 	c #B0B5E3",
"& 	c #AFB8E5",
"* 	c #9DD6EE",
"= 	c #96E2F1",
"- 	c #92E9F3",
"; 	c #9DD6ED",
"> 	c #B0B7E5",
", 	c #A7C6E9",
"' 	c #93E7F2",
") 	c #A9C2E7",
"! 	c #B1B7E5",
"~ 	c #AEB9E5",
"{ 	c #619BC1",
"] 	c #446DA3",
"^ 	c #6BA7C9",
"/ 	c #97EAF3",
"( 	c #96EAF3",
"_ 	c #94E6F2",
": 	c #AFB7E5",
"< 	c #AFB6E4",
"[ 	c #9DD7EE",
"} 	c #385795",
"| 	c #00005D",
"1 	c #4D6EA3",
"2 	c #A9EDF4",
"3 	c #A7ECF4",
"4 	c #A2EBF4",
"5 	c #A2D4ED",
"6 	c #96E3F1",
"7 	c #639EC3",
"8 	c #2E488B",
"9 	c #131B6E",
"0 	c #1B2373",
"a 	c #3A4A8C",
"b 	c #80A7C7",
"c 	c #B1EEF5",
"d 	c #A8E2F1",
"e 	c #92E8F3",
"f 	c #4D7BAC",
"g 	c #7187B3",
"h 	c #BFF0F6",
"i 	c #B1EBF4",
"j 	c #B1B4E4",
"k 	c #98DFF0",
"l 	c #78BAD4",
"m 	c #5F85B2",
"n 	c #27327D",
"o 	c #394085",
"p 	c #7C89B3",
"q 	c #AEC5D9",
"r 	c #CAF2F6",
"s 	c #B8E1F1",
"t 	c #B1B7E4",
"u 	c #B1B6E4",
"v 	c #A0D1EC",
"w 	c #9BEAF4",
"x 	c #AEEDF5",
"y 	c #485996",
"z 	c #6B73A5",
"A 	c #F0F8F8",
"B 	c #E2F5F8",
"C 	c #D0F3F7",
"D 	c #B8D2ED",
"E 	c #B2B5E4",
"F 	c #95E3F1",
"G 	c #9DEBF4",
"H 	c #B0EEF5",
"I 	c #A0C6DB",
"J 	c #99AECC",
"K 	c #C5D1E1",
"L 	c #CCEAF4",
"M 	c #ADB9E5",
"N 	c #9EE1F0",
"O 	c #ACEDF5",
"P 	c #BEF0F6",
"Q 	c #CEF2F7",
"R 	c #DBF4F7",
"S 	c #DFF5F7",
"T 	c #CFE7F3",
"U 	c #B4BAE5",
"V 	c #ADC9EA",
"W 	c #B4D8EE",
"X 	c #BEE2F2",
"Y 	c #C1DAEF",
"Z 	c #BCCAEA",
"` 	c #B6B5DE",
" .	c #DDB699",
"..	c #F7CC8A",
"+.	c #B2B6E5",
"@.	c #B2B8E4",
"#.	c #B2B5E5",
"$.	c #C4999B",
"%.	c #DE9767",
"&.	c #E9A96F",
"*.	c #F2BE7E",
"=.	c #FAD28E",
"-.	c #D47145",
";.	c #DB8654",
">.	c #E49B63",
",.	c #ECAF73",
"'.	c #F4C483",
").	c #FCD893",
"!.	c #CC633A",
"~.	c #D57749",
"{.	c #DE8C58",
"].	c #E6A168",
"^.	c #EEB578",
"/.	c #F6CA88",
"(.	c #D0693D",
"_.	c #D87E4D",
":.	c #E0925D",
"<.	c #E8A76D",
"[.	c #F1BB7C",
"}.	c #F9D18D",
"|.	c #CA5A31",
"1.	c #D26F42",
"2.	c #DA8452",
"3.	c #E39862",
"4.	c #EBAC71",
"5.	c #F3C181",
"6.	c #FBD590",
"7.	c #CC6037",
"8.	c #D47547",
"9.	c #DD8956",
"0.	c #E59E66",
"a.	c #EDB376",
"b.	c #F5C786",
"c.	c #CF663B",
"d.	c #D77B4B",
"e.	c #DF8F5B",
"f.	c #E7A46B",
"g.	c #F0B97A",
"h.	c #F8CD8A",
"i.	c #C95830",
"j.	c #D16C40",
"k.	c #D98150",
"l.	c #E19560",
"m.	c #EAAA6F",
"n.	c #F2BF7F",
"o.	c #CB5E35",
"p.	c #D37245",
"q.	c #DC8754",
"r.	c #E49C64",
"s.	c #ECB074",
"t.	c #F3C485",
"u.	c #C5522B",
"v.	c #CE6439",
"w.	c #D67849",
"x.	c #DE8D59",
"y.	c #E6A269",
"z.	c #EFB679",
"A.	c #C8552E",
"B.	c #D06A3E",
"C.	c #D87E4E",
"D.	c #E0935E",
"E.	c #E9A86E",
"F.	c #C95C33",
"G.	c #D26F43",
"H.	c #DC8452",
"        . + @ # $                   ",
"    % & * = - = ; > +               ",
"  % , ' - - - - - ' ) !             ",
"  ~ ' - - { ] ^ / ( _ :             ",
"< [ - - - } | 1 2 3 4 5 <           ",
". 6 - 7 8 9 | 0 a b c d .           ",
"@ e - f | | | | | g h i j           ",
"> k - l m n | o p q r s t           ",
"u v - w x y | z A B C D E           ",
"  + F G H I J K A B L E             ",
"    M N O P Q R S T U               ",
"      % V W X Y Z `  ...            ",
"          +.@.#.$.%.&.*.=.          ",
"                -.;.>.,.'.).        ",
"                !.~.{.].^./.        ",
"                  (._.:.<.[.}.      ",
"                  |.1.2.3.4.5.6.    ",
"                    7.8.9.0.a.b.    ",
"                      c.d.e.f.g.h.  ",
"                      i.j.k.l.m.n.  ",
"                        o.p.q.r.s.t.",
"                        u.v.w.x.y.z.",
"                          A.B.C.D.E.",
"                            F.G.H.  "};
