/* XPM */
static char * tfwcancel_xpm[] = {
"24 24 263 2",
"  	c None",
". 	c #AB4444",
"+ 	c #B65E5E",
"@ 	c #A13636",
"# 	c #AF5454",
"$ 	c #A53A3A",
"% 	c #AA4444",
"& 	c #F4E7E7",
"* 	c #FEFEFE",
"= 	c #EEDCDC",
"- 	c #A63F3F",
"; 	c #E0C2C2",
"> 	c #F7F7F7",
", 	c #ECDFDF",
"' 	c #A84343",
") 	c #AA4545",
"! 	c #FEEDEA",
"~ 	c #FDFDFD",
"{ 	c #EDDADA",
"] 	c #A64040",
"^ 	c #E1C5C5",
"/ 	c #F5F2F2",
"( 	c #F5F5F5",
"_ 	c #EBDEDE",
": 	c #A74242",
"< 	c #AA4646",
"[ 	c #FF8C78",
"} 	c #FC2D08",
"| 	c #FBBFB5",
"1 	c #FCFCFC",
"2 	c #EBD7D7",
"3 	c #EAA69E",
"4 	c #D21905",
"5 	c #E5978E",
"6 	c #F4F4F4",
"7 	c #EADDDD",
"8 	c #A74141",
"9 	c #A63C3C",
"0 	c #FD2600",
"a 	c #F92500",
"b 	c #F62907",
"c 	c #F9BEB4",
"d 	c #FBFBFB",
"e 	c #EAD6D6",
"f 	c #A63E3E",
"g 	c #EAA59D",
"h 	c #D11702",
"i 	c #CE1400",
"j 	c #CA1300",
"k 	c #E1928B",
"l 	c #F3F3F3",
"m 	c #E9DCDC",
"n 	c #A54141",
"o 	c #B35959",
"p 	c #FEFDFD",
"q 	c #FD330F",
"r 	c #FA2500",
"s 	c #F62400",
"t 	c #F32200",
"u 	c #EF2707",
"v 	c #F6BCB3",
"w 	c #FAFAFA",
"x 	c #E8D3D3",
"y 	c #A53D3D",
"z 	c #EAA59C",
"A 	c #CB1300",
"B 	c #C71100",
"C 	c #CB3325",
"D 	c #F2F2F2",
"E 	c #B35E5E",
"F 	c #E5C8C8",
"G 	c #FCCAC1",
"H 	c #F62E0C",
"I 	c #F02100",
"J 	c #EC2000",
"K 	c #E92407",
"L 	c #F4BBB3",
"M 	c #F9F9F9",
"N 	c #E7D2D2",
"O 	c #E2C8C8",
"P 	c #EAA39A",
"Q 	c #D21702",
"R 	c #C81100",
"S 	c #C82314",
"T 	c #EACCC9",
"U 	c #E2CFCF",
"V 	c #A33A3A",
"W 	c #A73E3E",
"X 	c #E7CCCC",
"Y 	c #F9C8C0",
"Z 	c #F12B0C",
"` 	c #ED2000",
" .	c #E91F00",
"..	c #E61D00",
"+.	c #E42207",
"@.	c #F1BAB2",
"#.	c #EAA299",
"$.	c #CF1400",
"%.	c #C81200",
"&.	c #C92415",
"*.	c #EBCDCA",
"=.	c #E1CDCD",
"-.	c #A43C3C",
";.	c #E5CBCB",
">.	c #F7C7BF",
",.	c #EB290C",
"'.	c #E31C00",
").	c #E01B00",
"!.	c #DD2007",
"~.	c #EFB8B1",
"{.	c #EAA198",
"].	c #D21802",
"^.	c #CC1300",
"/.	c #E1CCCC",
"(.	c #A43D3D",
"_.	c #E4CACA",
":.	c #F5C5BE",
"<.	c #E4260C",
"[.	c #DD1A00",
"}.	c #D91800",
"|.	c #D71D07",
"1.	c #D31802",
"2.	c #C91200",
"3.	c #C92516",
"4.	c #EBCDCB",
"5.	c #E0CACA",
"6.	c #A33B3B",
"7.	c #A63B3B",
"8.	c #F2C4BE",
"9.	c #DE240C",
"0.	c #DA1800",
"a.	c #D61700",
"b.	c #D31600",
"c.	c #D01500",
"d.	c #CA2516",
"e.	c #EBCECC",
"f.	c #E0C8C8",
"g.	c #A33939",
"h.	c #E6D0D0",
"i.	c #F8F8F8",
"j.	c #F0C3BD",
"k.	c #D8200A",
"l.	c #CD1300",
"m.	c #CA2515",
"n.	c #EBCFCD",
"o.	c #A13838",
"p.	c #A63D3D",
"q.	c #E9D6D6",
"r.	c #EAA097",
"s.	c #D41701",
"t.	c #CA1200",
"u.	c #C61100",
"v.	c #C41607",
"w.	c #E4B2AE",
"x.	c #F1F1F1",
"y.	c #A74444",
"z.	c #A53E3E",
"A.	c #E9D5D5",
"B.	c #EAA197",
"C.	c #D11500",
"D.	c #CD1400",
"E.	c #C31000",
"F.	c #C00E00",
"G.	c #BE1307",
"H.	c #E1AFAC",
"I.	c #DDC3C3",
"J.	c #EBA198",
"K.	c #CB2313",
"L.	c #C5190A",
"M.	c #C00F00",
"N.	c #BD0D00",
"O.	c #B90C00",
"P.	c #B81107",
"Q.	c #DEADAA",
"R.	c #F0F0F0",
"S.	c #DCC2C2",
"T.	c #A33C3C",
"U.	c #E9D7D7",
"V.	c #CB2414",
"W.	c #EBCBC8",
"X.	c #E6B9B5",
"Y.	c #BF1609",
"Z.	c #BA0C00",
"`.	c #B60B00",
" +	c #B30900",
".+	c #B20D06",
"++	c #DBABA9",
"@+	c #EFEFEF",
"#+	c #DBC1C1",
"$+	c #EAD8D8",
"%+	c #D51801",
"&+	c #E3B8B5",
"*+	c #B91409",
"=+	c #B30A00",
"-+	c #B00800",
";+	c #AD0700",
">+	c #AB0B06",
",+	c #D9A8A7",
"'+	c #EDEDED",
")+	c #DABFBF",
"!+	c #A13939",
"~+	c #D21500",
"{+	c #CC2414",
"]+	c #E0C6C6",
"^+	c #E1B7B5",
"/+	c #B3120A",
"(+	c #AA0600",
"_+	c #A60400",
":+	c #A50906",
"<+	c #D6A6A5",
"[+	c #ECECEC",
"}+	c #D7BABA",
"|+	c #B45F5F",
"1+	c #F7F6F6",
"2+	c #D61E08",
"3+	c #CC2514",
"4+	c #DDC1C1",
"5+	c #E0CBCB",
"6+	c #DFB7B5",
"7+	c #AD100A",
"8+	c #A70500",
"9+	c #A30300",
"0+	c #A00200",
"a+	c #A91E1D",
"b+	c #EBEBEB",
"c+	c #AC5151",
"d+	c #A54040",
"e+	c #F6F6F6",
"f+	c #E9A69E",
"g+	c #CF1703",
"h+	c #DDC0C0",
"i+	c #A43B3B",
"j+	c #E0CCCC",
"k+	c #DDB6B5",
"l+	c #A70E0B",
"m+	c #A30A08",
"n+	c #D7ACAB",
"o+	c #E1D2D2",
"p+	c #A23838",
"q+	c #A53C3C",
"r+	c #E9D8D8",
"s+	c #E6A49D",
"t+	c #D13C2D",
"u+	c #DDBEBE",
"v+	c #EEEEEE",
"w+	c #DBB6B5",
"x+	c #AD2A29",
"y+	c #D8AFAE",
"z+	c #A33E3E",
"A+	c #E7D6D6",
"B+	c #A33D3D",
"C+	c #E0CDCD",
"D+	c #E2D4D4",
"E+	c #E5D3D3",
"F+	c #D9B9B9",
"G+	c #A23C3C",
"H+	c #DFCDCD",
"I+	c #E2D5D5",
"J+	c #A53F3F",
"K+	c #A43A3A",
"L+	c #AF5656",
"M+	c #B05C5C",
"N+	c #A33F3F",
"        . + @                       # $         ",
"      % & * = -                 $ ; > , '       ",
"    ) & * ! ~ { ]             $ ^ > / ( _ :     ",
"  < & * [ } | 1 2 -         $ ^ > 3 4 5 6 7 8   ",
"9 & * [ 0 a b c d e f     $ ^ > g h i j k l m n ",
"o * p q r s t u v w x y $ ^ > z h i A B C l D E ",
"  F ~ G H t I J K L M N O > P Q i A R S T D U V ",
"  W X 1 Y Z `  ...+.@.> > #.Q $.A %.&.*.D =.-.  ",
"    9 ;.d >.,...'.).!.~.{.].$.^.%.&.*.D /.-.    ",
"      (._.w :.<.).[.}.|.1.$.^.2.3.4.D 5.6.      ",
"        7._.M 8.9.0.a.b.c.^.2.d.e.D f.g.        ",
"          -.h.i.j.k.b.c.l.2.m.n.D 5.o.          ",
"          p.q.> r.s.c.l.t.u.v.w.D x.y.          ",
"        z.A.> B.s.C.D.t.B E.F.G.H.x.I.z.        ",
"      - q.> J.s.C.i t.K.L.M.N.O.P.Q.R.S.T.      ",
"    - U.> J.s.C.i j V.W.X.Y.Z.`. +.+++@+#+V     ",
"  - $+> J.%+C.i A V.W.l D &+*+=+-+;+>+,+'+)+!+  ",
"f $+> J.%+~+i A {+W.l ]+/.x.^+/+;+(+_+:+<+[+}+  ",
"|+> 1+2+~+$.A 3+W.l 4+g.T.5+R.6+7+8+9+0+a+[+b+c+",
"d+$+e+f+g+^.3+W.l h+g.    i+j+@+k+l+0+m+n+b+o+p+",
"  q+r+( s+t+W.l u+p+        6.j+v+w+x+y+b+o+z+  ",
"    z.A+6 l l u+p+            B+C+[+[+b+D+z.    ",
"      z.E+l F+p+                G+H+b+I+J+      ",
"        K+L+                      K+M+N+        "};
