/* XPM */
static char * tfwclose_xpm[] = {
"24 24 156 2",
"  	c None",
". 	c #936D2C",
"+ 	c #956D28",
"@ 	c #966D28",
"# 	c #956E2C",
"$ 	c #996E28",
"% 	c #966F2C",
"& 	c #976F2C",
"* 	c #986F2C",
"= 	c #98702B",
"- 	c #98702C",
"; 	c #947237",
"> 	c #A17123",
", 	c #A07224",
"' 	c #977337",
") 	c #A17224",
"! 	c #A27223",
"~ 	c #A27224",
"{ 	c #A37222",
"] 	c #A37323",
"^ 	c #A37324",
"/ 	c #A47323",
"( 	c #A57322",
"_ 	c #987537",
": 	c #A47423",
"< 	c #A1752C",
"[ 	c #AA751F",
"} 	c #A3762C",
"| 	c #A97621",
"1 	c #AA7621",
"2 	c #AC761F",
"3 	c #A5772B",
"4 	c #AC7720",
"5 	c #AC7721",
"6 	c #AD771F",
"7 	c #AE771E",
"8 	c #AD7820",
"9 	c #AA7927",
"0 	c #AC7A26",
"a 	c #B37A1D",
"b 	c #B37A1E",
"c 	c #B47A1D",
"d 	c #AE7B26",
"e 	c #B47B1D",
"f 	c #B57B1C",
"g 	c #AB7C30",
"h 	c #B57B1D",
"i 	c #B67B1D",
"j 	c #B77B1C",
"k 	c #B77C1D",
"l 	c #B37D26",
"m 	c #BC7D1A",
"n 	c #B57E25",
"o 	c #BC7E1C",
"p 	c #BE7E1A",
"q 	c #B77F25",
"r 	c #BC7F1B",
"s 	c #B4802C",
"t 	c #BD7F1C",
"u 	c #BE7F1A",
"v 	c #BE7F1B",
"w 	c #BF7F19",
"x 	c #A1834C",
"y 	c #BC801F",
"z 	c #BE801C",
"A 	c #BF801A",
"B 	c #BF801B",
"C 	c #C0801B",
"D 	c #C18019",
"E 	c #B98227",
"F 	c #C1811A",
"G 	c #C1811B",
"H 	c #C1811C",
"I 	c #C1811D",
"J 	c #BC8222",
"K 	c #C0821D",
"L 	c #C0821E",
"M 	c #C1821D",
"N 	c #BE8322",
"O 	c #C0831F",
"P 	c #C08320",
"Q 	c #C08321",
"R 	c #C08422",
"S 	c #C08423",
"T 	c #C08424",
"U 	c #C08425",
"V 	c #C08524",
"W 	c #C08526",
"X 	c #C18526",
"Y 	c #C48625",
"Z 	c #C48726",
"` 	c #C48727",
" .	c #C48828",
"..	c #C3882B",
"+.	c #C48929",
"@.	c #C3892C",
"#.	c #C3892D",
"$.	c #C38A2D",
"%.	c #C38B2F",
"&.	c #C38C30",
"*.	c #8E9491",
"=.	c #C68E33",
"-.	c #C78E34",
";.	c #C78F35",
">.	c #C78F36",
",.	c #C59038",
"'.	c #C79036",
").	c #C69039",
"!.	c #C6913A",
"~.	c #C6913B",
"{.	c #C6913C",
"].	c #C6923D",
"^.	c #C6923E",
"/.	c #C99541",
"(.	c #C99542",
"_.	c #CA9642",
":.	c #CA9643",
"<.	c #CA9644",
"[.	c #C89747",
"}.	c #C99747",
"|.	c #C99748",
"1.	c #C99848",
"2.	c #C99849",
"3.	c #C9984A",
"4.	c #979F9B",
"5.	c #C9994A",
"6.	c #C9994C",
"7.	c #CC9C4E",
"8.	c #CC9C4F",
"9.	c #CB9D52",
"0.	c #CD9D4F",
"a.	c #CC9D52",
"b.	c #CD9D50",
"c.	c #CC9D53",
"d.	c #CD9D51",
"e.	c #CC9E53",
"f.	c #CC9E54",
"g.	c #CC9E55",
"h.	c #CC9F56",
"i.	c #CC9F57",
"j.	c #C5A162",
"k.	c #A5A599",
"l.	c #CCA059",
"m.	c #CFA664",
"n.	c #CFA765",
"o.	c #CFA766",
"p.	c #CFA767",
"q.	c #CFA867",
"r.	c #CFA868",
"s.	c #CFA869",
"t.	c #CFA969",
"u.	c #CEAB71",
"v.	c #CEAB72",
"w.	c #CEAC73",
"x.	c #ADB5B1",
"y.	c #C5B28C",
"        p.m.q.r.u.r.n.s.s.v.s.o.t.t.w.          ",
"        9.7.8.a.h.c.0.b.e.i.f.b.d.g.l.          ",
"        [./.(.}.3.|._.:.1.5.1.:.<.2.6.          ",
"        ,.=.-.).{.!.;.;.!.].~.>.'.~.^.          ",
"        ..` Y ..%.@. .Z @.%.#.+. .$.&.          ",
"        L H D L T L H D L U O M F P X           ",
"        K M D L V L M D L V L M D L V           ",
"        L K F L W L K F L W L K F L W           ",
"        K G F K T K G F K T K G F K T           ",
"        M k.E M S M F F M S M F F M S           ",
"        L x.y.j.S K F F K S K F F K S           ",
"        L *.g y R K D G K R K D G K R           ",
"        I 4.s H R H D G H R H D G H R           ",
"        G x u G Q G D D G Q G D D G Q           ",
"        F F D F Q F F D F Q F F D F Q           ",
"        F F G F S F F G F S F F G F S           ",
"        F D H F T F D H F T F D H F T           ",
"        F D G F S F D G F S F D G F S           ",
"        F D F F Q F D F F Q F D F F Q           ",
"        o m r t J t p v z N B w A C R           ",
"        b b a a l c e f h n i i j k q           ",
"        | [ [ 1 9 1 2 2 5 0 4 6 7 8 d           ",
"        , > > ) < ~ { ! ^ } ] ( / : 3           ",
"        . + # # ; % @ & & ' * $ = - _           "};
