/* XPM */
static char * tfwdate_xpm[] = {
"21 24 361 2",
"  	c None",
". 	c #A7A6A6",
"+ 	c #908C8C",
"@ 	c #949191",
"# 	c #A3A1A1",
"$ 	c #8D8888",
"% 	c #D0CECC",
"& 	c #9C908D",
"* 	c #BFB9B4",
"= 	c #AEA6A6",
"- 	c #D5D1D1",
"; 	c #D1CECD",
"> 	c #918580",
", 	c #C3BFBB",
"' 	c #A49A99",
") 	c #BB9B6F",
"! 	c #B2835F",
"~ 	c #AB7354",
"{ 	c #CFC2BC",
"] 	c #A4897F",
"^ 	c #A36D50",
"/ 	c #BAA094",
"( 	c #B3A5A1",
"_ 	c #9D664A",
": 	c #A37E6D",
"< 	c #D7D3D3",
"[ 	c #977160",
"} 	c #945D44",
"| 	c #D1C8C5",
"1 	c #96796E",
"2 	c #8C563E",
"3 	c #BAA69D",
"4 	c #A5928D",
"5 	c #865039",
"6 	c #805139",
"7 	c #715536",
"8 	c #BE9E70",
"9 	c #AF5846",
"0 	c #C55C59",
"a 	c #DAC2C1",
"b 	c #B38887",
"c 	c #C45D5A",
"d 	c #CD9F9D",
"e 	c #BBA8A7",
"f 	c #C37F7D",
"g 	c #D8D4D3",
"h 	c #B97473",
"i 	c #C45E5B",
"j 	c #DCCCCB",
"k 	c #B27F7D",
"l 	c #C45F5C",
"m 	c #D2AEAC",
"n 	c #B69A99",
"o 	c #C3605D",
"p 	c #994E41",
"q 	c #705336",
"r 	c #B0362C",
"s 	c #C74745",
"t 	c #D8ACAB",
"u 	c #BF7F7E",
"v 	c #C94E4C",
"w 	c #CE8483",
"x 	c #C29E9D",
"y 	c #C94F4C",
"z 	c #CA615F",
"A 	c #CEB6B5",
"B 	c #C65D5B",
"C 	c #C9504D",
"D 	c #D7B6B5",
"E 	c #BF7573",
"F 	c #C9504E",
"G 	c #D29695",
"H 	c #BF9190",
"I 	c #C8514F",
"J 	c #9C483B",
"K 	c #705335",
"L 	c #B23028",
"M 	c #B21212",
"N 	c #CA4847",
"O 	c #CD4140",
"P 	c #CF3F3E",
"Q 	c #CE403E",
"R 	c #CE5452",
"S 	c #CE403F",
"T 	c #CE5654",
"U 	c #CE413F",
"V 	c #CF5655",
"W 	c #CE4140",
"X 	c #CE4240",
"Y 	c #CE4644",
"Z 	c #CD5250",
"` 	c #CE4241",
" .	c #9E4236",
"..	c #6F5235",
"+.	c #BD2B22",
"@.	c #D04D4E",
"#.	c #D36060",
"$.	c #D46768",
"%.	c #BD1B1C",
"&.	c #B60A0B",
"*.	c #B50C0D",
"=.	c #B71011",
"-.	c #B91515",
";.	c #BB1919",
">.	c #C12020",
",.	c #D02F2F",
"'.	c #D33331",
").	c #D33332",
"!.	c #D33432",
"~.	c #A13C30",
"{.	c #C8271F",
"].	c #E47273",
"^.	c #F4CACA",
"/.	c #ECA7A7",
"(.	c #D43D3E",
"_.	c #EAA1A1",
":.	c #E48D8D",
"<.	c #E18787",
"[.	c #CE4242",
"}.	c #DC797A",
"|.	c #BB0708",
"1.	c #BA0809",
"2.	c #C41213",
"3.	c #D01D1E",
"4.	c #D52222",
"5.	c #D82524",
"6.	c #D82525",
"7.	c #A4362A",
"8.	c #6E5134",
"9.	c #BD9D6F",
"0.	c #D32219",
"a.	c #ED7172",
"b.	c #EA6465",
"c.	c #FDF3F3",
"d.	c #E6595A",
"e.	c #EE9293",
"f.	c #F2B1B1",
"g.	c #DC3738",
"h.	c #F9E0E0",
"i.	c #D52829",
"j.	c #CC0405",
"k.	c #CA0506",
"l.	c #C80506",
"m.	c #C60506",
"n.	c #C40506",
"o.	c #C30708",
"p.	c #C5090A",
"q.	c #C70B0C",
"r.	c #AD231A",
"s.	c #6E5133",
"t.	c #BC9C6E",
"u.	c #C75143",
"v.	c #D65751",
"w.	c #D54F49",
"x.	c #D86762",
"y.	c #D34842",
"z.	c #D7645E",
"A.	c #D5534D",
"B.	c #D0403A",
"C.	c #D56863",
"D.	c #CD3F3A",
"E.	c #CB3F3A",
"F.	c #C93F3A",
"G.	c #C83F3A",
"H.	c #C73F3A",
"I.	c #C53F3A",
"J.	c #C43F3A",
"K.	c #C23F3A",
"L.	c #AC4035",
"M.	c #6D5033",
"N.	c #BB9B6E",
"O.	c #CFC3B0",
"P.	c #F8F6F7",
"Q.	c #F8F7F7",
"R.	c #F5F4F4",
"S.	c #F1F1F1",
"T.	c #EDEDED",
"U.	c #E9E9EA",
"V.	c #E4E5E6",
"W.	c #E0E1E3",
"X.	c #DCDDDF",
"Y.	c #D8D9DB",
"Z.	c #D4D5D8",
"`.	c #AB9F94",
" +	c #6C4F32",
".+	c #BA9A6D",
"++	c #D1BEAE",
"@+	c #FAF0F1",
"#+	c #FBF1F1",
"$+	c #F7EDEE",
"%+	c #F2E9EA",
"&+	c #EEE5E6",
"*+	c #E9E1E2",
"=+	c #E6DDDF",
"-+	c #E1D9DB",
";+	c #DDD5D7",
">+	c #D8D1D3",
",+	c #D4CDD0",
"'+	c #AC9C90",
")+	c #6C4E32",
"!+	c #B9996C",
"~+	c #CFC0AF",
"{+	c #F8F6F6",
"]+	c #F9F6F7",
"^+	c #F6F4F4",
"/+	c #F2F0F1",
"(+	c #EEECED",
"_+	c #EBE8E9",
":+	c #E6E4E6",
"<+	c #E2E0E2",
"[+	c #DDDCDE",
"}+	c #D9D7DA",
"|+	c #D5D4D7",
"1+	c #AA9E92",
"2+	c #6B4E32",
"3+	c #B8986B",
"4+	c #CEBEAC",
"5+	c #F3EDEE",
"6+	c #F3EBEC",
"7+	c #D4CECE",
"8+	c #858182",
"9+	c #777575",
"0+	c #ACA8A9",
"a+	c #DED9DB",
"b+	c #DBD7D9",
"c+	c #D7D3D5",
"d+	c #CAC5C8",
"e+	c #787577",
"f+	c #989497",
"g+	c #D5D0D3",
"h+	c #AA9C91",
"i+	c #6B4D31",
"j+	c #B7976A",
"k+	c #CCBBAB",
"l+	c #EFE9EA",
"m+	c #EFE8E9",
"n+	c #827F80",
"o+	c #565454",
"p+	c #595757",
"q+	c #000000",
"r+	c #938F90",
"s+	c #DAD4D7",
"t+	c #D6D0D3",
"u+	c #565456",
"v+	c #020202",
"w+	c #484748",
"x+	c #D4CFD2",
"y+	c #AA9B90",
"z+	c #6A4D31",
"A+	c #B6966A",
"B+	c #CABCAC",
"C+	c #ECEBEC",
"D+	c #EBEAEB",
"E+	c #E8E6E8",
"F+	c #E7E6E7",
"G+	c #E4E3E5",
"H+	c #111111",
"I+	c #626163",
"J+	c #D9D9DB",
"K+	c #9D9D9F",
"L+	c #2B2B2B",
"M+	c #383839",
"N+	c #49494A",
"O+	c #D5D5D8",
"P+	c #A99D92",
"Q+	c #694C30",
"R+	c #B59569",
"S+	c #C7B7A8",
"T+	c #E6DEE0",
"U+	c #E6DEDF",
"V+	c #E5DCDE",
"W+	c #E2DADC",
"X+	c #6F6B6C",
"Y+	c #171717",
"Z+	c #BEB8B9",
"`+	c #CAC3C6",
" @	c #1F1E1E",
".@	c #AEA8AA",
"+@	c #3B393A",
"@@	c #484647",
"#@	c #AA9A8F",
"$@	c #B39468",
"%@	c #C5B8A8",
"&@	c #E3E4E6",
"*@	c #DEDFE2",
"=@	c #595A5B",
"-@	c #1C1C1C",
";@	c #BABBBD",
">@	c #D7D9DC",
",@	c #9A9B9D",
"'@	c #0D0D0E",
")@	c #353536",
"!@	c #0E0E0F",
"~@	c #121212",
"{@	c #858688",
"]@	c #D5D7DA",
"^@	c #B29367",
"/@	c #C3B4A4",
"(@	c #DED6D8",
"_@	c #DDD6D8",
":@	c #787475",
"<@	c #2A2829",
"[@	c #3C393A",
"}@	c #6B6869",
"|@	c #C0BABC",
"1@	c #8B8688",
"2@	c #272626",
"3@	c #2F2E2E",
"4@	c #AFAAAC",
"5@	c #AA998F",
"6@	c #B19266",
"7@	c #C1B4A5",
"8@	c #DADCDE",
"9@	c #DADBDE",
"0@	c #ADAEB0",
"a@	c #7F8082",
"b@	c #7E7F81",
"c@	c #97999B",
"d@	c #9C9EA0",
"e@	c #B09166",
"f@	c #BEAFA0",
"g@	c #D5CED1",
"h@	c #D5CDD0",
"i@	c #BBACA4",
"j@	c #AF9065",
"k@	c #BEB0A1",
"l@	c #D5D2D5",
"m@	c #DFDBDD",
"n@	c #B7A9A0",
"o@	c #AE8F64",
"p@	c #BCAD9C",
"q@	c #CBC5C3",
"r@	c #CAC5C3",
"s@	c #CAC4C3",
"t@	c #CAC4C2",
"u@	c #C9C4C2",
"v@	c #C9C3C2",
"w@	c #C8C3C2",
"x@	c #D1CAC9",
"y@	c #D1C9C9",
"z@	c #AE9F95",
"A@	c #92744F",
"B@	c #8F724F",
"C@	c #8E7251",
"D@	c #8C704F",
"E@	c #8A6E4E",
"F@	c #886C4D",
"G@	c #866A4B",
"H@	c #84694A",
"I@	c #826648",
"J@	c #806547",
"K@	c #7F6245",
"L@	c #7D6143",
"M@	c #7A5F43",
"N@	c #795D41",
"O@	c #765B3F",
"P@	c #75593E",
"Q@	c #73573C",
"R@	c #71563B",
"S@	c #6F5439",
"T@	c #6D5136",
"      .       +     @     #       $       ",
"      % &   * =     -     ; >   , '       ",
") ! ~ { ] ^ / ( _ : < [ } | 1 2 3 4 5 6 7 ",
"8 9 0 a b c d e c f g h i j k l m n o p q ",
"8 r s t u v w x y z A B C D E F G H I J K ",
"8 L M N O P Q R Q S T U U V W X Y Z `  ...",
"8 +.@.#.$.%.&.*.=.-.;.>.,.'.).).).).!.~...",
"8 {.].^./.(._.:.<.[.}.|.1.2.3.4.5.5.6.7.8.",
"9.0.a.b.c.d.e.f.g.h.i.j.k.l.m.n.o.p.q.r.s.",
"t.u.v.w.x.y.z.A.B.C.D.E.F.G.H.I.I.J.K.L.M.",
"N.O.P.Q.R.S.T.U.V.W.X.Y.Z.Z.Z.Z.Z.Z.Z.`. +",
".+++@+#+$+%+&+*+=+-+;+>+,+,+,+,+,+,+,+'+)+",
"!+~+{+]+^+/+(+_+:+<+[+}+|+|+|+|+|+|+|+1+2+",
"3+4+5+5+6+7+8+9+0+a+b+c+d+e+f+g+g+g+g+h+i+",
"j+k+l+l+m+n+o+p+q+r+s+t+u+v+w+x+x+x+x+y+z+",
"A+B+C+C+D+E+F+G+H+I+J+K+L+M+N+O+O+O+O+P+Q+",
"R+S+T+T+U+V+W+X+Y+Z+`+ @.@+@@@,+,+,+,+#@Q+",
"$@%@&@&@&@*@=@-@;@>@,@'@)@!@~@{@]@]@]@P+Q+",
"^@/@(@(@_@:@q+<@[@}@|@1@1@2@3@4@,+,+,+5@Q+",
"6@7@8@8@9@0@a@b@b@,@]@]@]@c@d@]@]@]@]@P+Q+",
"e@f@g@g@,+,+,+,+,+,+,+,+,+,+,+,+,+,+h@i@Q+",
"j@k@l@l@l@l@l@l@l@l@l@l@l@l@l@l@l@l@m@n@Q+",
"o@p@q@q@r@r@r@r@s@t@u@u@u@v@v@v@w@x@y@z@Q+",
"A@B@C@D@E@F@G@H@I@J@K@L@M@N@O@P@Q@R@S@T@Q+"};
