/* XPM */
static char * tfwfolder_xpm[] = {
"24 17 233 2",
"  	c None",
". 	c #155300",
"+ 	c #145400",
"@ 	c #165500",
"# 	c #1C5B01",
"$ 	c #215B00",
"% 	c #225D00",
"& 	c #235F01",
"* 	c #176305",
"= 	c #236001",
"- 	c #186306",
"; 	c #276100",
"> 	c #1D6706",
", 	c #1E6707",
"' 	c #276501",
") 	c #1E6802",
"! 	c #1E6806",
"~ 	c #1E6807",
"{ 	c #1F6900",
"] 	c #206A01",
"^ 	c #296801",
"/ 	c #2A6801",
"( 	c #216A08",
"_ 	c #276901",
": 	c #2D6801",
"< 	c #2D6802",
"[ 	c #2B6901",
"} 	c #2C6901",
"| 	c #2E6901",
"1 	c #316900",
"2 	c #2F6A01",
"3 	c #2D6B02",
"4 	c #2F6B01",
"5 	c #246E08",
"6 	c #306C01",
"7 	c #266F01",
"8 	c #316C01",
"9 	c #316C02",
"0 	c #266F07",
"a 	c #326D02",
"b 	c #326E02",
"c 	c #297209",
"d 	c #2C750A",
"e 	c #2E770B",
"f 	c #30780B",
"g 	c #30790B",
"h 	c #317A0B",
"i 	c #337B0C",
"j 	c #417905",
"k 	c #347D0C",
"l 	c #398006",
"m 	c #457D06",
"n 	c #3A8207",
"o 	c #3B8208",
"p 	c #477F07",
"q 	c #3C8308",
"r 	c #4A8006",
"s 	c #3D8409",
"t 	c #3E8407",
"u 	c #498204",
"v 	c #3F8602",
"w 	c #3F860A",
"x 	c #4D8507",
"y 	c #518603",
"z 	c #538A02",
"A 	c #558B04",
"B 	c #558C06",
"C 	c #548D05",
"D 	c #5B8C04",
"E 	c #509607",
"F 	c #659602",
"G 	c #629803",
"H 	c #639D0D",
"I 	c #5EA104",
"J 	c #68A207",
"K 	c #69A309",
"L 	c #62A510",
"M 	c #63A608",
"N 	c #6BA508",
"O 	c #6CA814",
"P 	c #7DA702",
"Q 	c #70AA0B",
"R 	c #83A702",
"S 	c #73AE05",
"T 	c #74AF06",
"U 	c #75B007",
"V 	c #76B113",
"W 	c #76B20D",
"X 	c #75B719",
"Y 	c #77B908",
"Z 	c #7DB810",
"` 	c #95B402",
" .	c #97B401",
"..	c #98B502",
"+.	c #7DBE05",
"@.	c #80BC18",
"#.	c #82C013",
"$.	c #A0BE02",
"%.	c #8AC619",
"&.	c #89C908",
"*.	c #8BC716",
"=.	c #9BC504",
"-.	c #9AC705",
";.	c #A7C602",
">.	c #9DC905",
",.	c #8DCC19",
"'.	c #9EC905",
").	c #AAC602",
"!.	c #A0CA05",
"~.	c #ACC702",
"{.	c #A1CB05",
"].	c #ADC802",
"^.	c #ABC903",
"/.	c #A3CC05",
"(.	c #B4C800",
"_.	c #B4C801",
":.	c #A4CD04",
"<.	c #A6CE04",
"[.	c #A8CE04",
"}.	c #A9CF04",
"|.	c #97D506",
"1.	c #AAD004",
"2.	c #ABD004",
"3.	c #ACD104",
"4.	c #99D707",
"5.	c #9BD60F",
"6.	c #AED204",
"7.	c #BDCE00",
"8.	c #AFD304",
"9.	c #B1D304",
"0.	c #B1D404",
"a.	c #B2D404",
"b.	c #B4D504",
"c.	c #B5D504",
"d.	c #B5D604",
"e.	c #B6D604",
"f.	c #B7D704",
"g.	c #B8D803",
"h.	c #B9D803",
"i.	c #C6D500",
"j.	c #BAD903",
"k.	c #BBD903",
"l.	c #BED903",
"m.	c #BCDA03",
"n.	c #C4D801",
"o.	c #BDDA03",
"p.	c #BDDB03",
"q.	c #A3E022",
"r.	c #BFDB03",
"s.	c #C0DC03",
"t.	c #A8E407",
"u.	c #C1DD03",
"v.	c #C2DD03",
"w.	c #CEDB00",
"x.	c #C3DE03",
"y.	c #CFDC00",
"z.	c #D0DC00",
"A.	c #C5DF03",
"B.	c #C6E003",
"C.	c #C7E003",
"D.	c #C8E003",
"E.	c #C8E103",
"F.	c #C9E103",
"G.	c #CAE103",
"H.	c #CBE203",
"I.	c #AFEB07",
"J.	c #CCE303",
"K.	c #CDE302",
"L.	c #CEE402",
"M.	c #D0E502",
"N.	c #D1E602",
"O.	c #D3E602",
"P.	c #B2ED1E",
"Q.	c #B1ED21",
"R.	c #D3E702",
"S.	c #D4E702",
"T.	c #D5E802",
"U.	c #D6E802",
"V.	c #D7E902",
"W.	c #D8E902",
"X.	c #B5F121",
"Y.	c #D9EA02",
"Z.	c #DAEB02",
"`.	c #B7F226",
" +	c #DBEB02",
".+	c #B8F326",
"++	c #DCEC02",
"@+	c #DEEC02",
"#+	c #DFED02",
"$+	c #E0EE02",
"%+	c #E1EE01",
"&+	c #BBF625",
"*+	c #BBF627",
"=+	c #E3EE01",
"-+	c #E2EF01",
";+	c #BCF722",
">+	c #BCF723",
",+	c #BDF820",
"'+	c #BEF81E",
")+	c #E4F001",
"!+	c #BEF91C",
"~+	c #BFF91A",
"{+	c #E5F101",
"]+	c #BFFA18",
"^+	c #C0FA17",
"/+	c #E6F101",
"(+	c #C0FB15",
"_+	c #C1FB13",
":+	c #E7F201",
"<+	c #E8F201",
"[+	c #C1FC11",
"}+	c #C2FC0F",
"|+	c #C2FD08",
"1+	c #C3FD0B",
"2+	c #C3FD0D",
"3+	c #EAF301",
"4+	c #C4FE09",
"5+	c #EBF401",
"6+	c #EFF300",
"7+	c #ECF401",
"8+	c #EDF501",
"9+	c #EFF601",
"0+	c #F0F701",
"a+	c #F2F801",
"b+	c #F3F801",
"c+	c #F4F800",
"d+	c #F5F901",
"e+	c #F6FA00",
"f+	c #F8FB00",
"g+	c #F9FC00",
"h+	c #FCFE00",
"i+	c #FEFE00",
"j+	c #FFFF00",
"  * 0 !                             )           ",
"  X &+Q.,.L w s q o n l t E M Y &.4.t.7         ",
", q.&+>+;+,+'+!+~+]+^+(+_+[+}+2+1+4+|+]         ",
"~ `.&+>+;+,+'+!+~+]+^+(+_+[+}+2+1+4+I.{         ",
"5 *+&+>+;+P.*.#.Z W Q K N [+}+2+1+4+|.          ",
"d *+&+>+;+H  .(.7.i.y.w.u [+}+2+1+4++.          ",
"e *+&+>+;+x j+j+j+j+j+R 5.[+}+2+1+4+I           ",
"f *+&+>+X.D j+j+j+j+6+B _+[+}+2+1+4+v           ",
"h *+&+>+V _.j+j+j+j+z.y A C J U T S _ $ % ; 1 . ",
"i *+&+>+r i+j+j+i+g+d+0+5+=+n.].~.).;.^.l.u.P   ",
"k *+&+%...j+h+f+b+9+3+{+$+++V.O.L.F.A.s.k.c.&   ",
"g *+&+p c+e+a+8+<+)+#+Z.U.N.J.D.x.r.j.d.9.F     ",
"c *+@.` 0+7+:+-+@+Y.S.M.H.B.v.o.g.b.8.1.=.#     ",
"( .+m <+/+%+++W.R.L.G.A.s.m.f.a.6.}.:.!.}       ",
"> O $.#+ +U.N.K.E.x.r.j.e.0.3.[./.'.-.z         ",
"- j Y.T.M.H.C.v.p.h.b.8.2.<.{.>.-.-.G @         ",
"  = : < | 2 6 9 b a 8 4 3 [ / / ^ ' +           "};
