/* XPM */
static char * tfwok_xpm[] = {
"24 24 279 2",
"  	c None",
". 	c #226022",
"+ 	c #226122",
"@ 	c #286428",
"# 	c #226222",
"$ 	c #3E7B3E",
"% 	c #70B470",
"& 	c #82CF82",
"* 	c #95E295",
"= 	c #A1EFA1",
"- 	c #9FED9F",
"; 	c #92DC92",
"> 	c #82C782",
", 	c #66A766",
"' 	c #387538",
") 	c #75B875",
"! 	c #B1F8B1",
"~ 	c #AAFBAA",
"{ 	c #A1F9A1",
"] 	c #97F597",
"^ 	c #8DF28D",
"/ 	c #83EE83",
"( 	c #7AE97A",
"_ 	c #71E471",
": 	c #68DF68",
"< 	c #72D672",
"[ 	c #63A363",
"} 	c #3E7D3E",
"| 	c #9AE49A",
"1 	c #B0FDB0",
"2 	c #A4FBA4",
"3 	c #9BF89B",
"4 	c #90F590",
"5 	c #87F187",
"6 	c #7EED7E",
"7 	c #74E874",
"8 	c #6BE36B",
"9 	c #62DE62",
"0 	c #58D858",
"a 	c #50D150",
"b 	c #4DCC4D",
"c 	c #68B868",
"d 	c #397539",
"e 	c #ACF7AC",
"f 	c #A8FDA8",
"g 	c #9EFB9E",
"h 	c #95F895",
"i 	c #8AF48A",
"j 	c #81F081",
"k 	c #78EC78",
"l 	c #6EE76E",
"m 	c #65E265",
"n 	c #5CDC5C",
"o 	c #53D753",
"p 	c #4AD04A",
"q 	c #41C841",
"r 	c #38C138",
"s 	c #30B830",
"t 	c #4DB54D",
"u 	c #387438",
"v 	c #93E293",
"w 	c #A1FDA1",
"x 	c #98FB98",
"y 	c #8FF78F",
"z 	c #84F484",
"A 	c #7BF07B",
"B 	c #71EC71",
"C 	c #69E769",
"D 	c #60E160",
"E 	c #56DB56",
"F 	c #4DD54D",
"G 	c #45CE45",
"H 	c #3BC73B",
"I 	c #2BBC2B",
"J 	c #26B526",
"K 	c #2EB32E",
"L 	c #16A416",
"M 	c #56A456",
"N 	c #6EB56E",
"O 	c #9EFC9E",
"P 	c #92FA92",
"Q 	c #88F788",
"R 	c #7FF37F",
"S 	c #75EF75",
"T 	c #6BEB6B",
"U 	c #63E663",
"V 	c #5AE05A",
"W 	c #50DA50",
"X 	c #47D447",
"Y 	c #34CA34",
"Z 	c #1DBE1D",
"` 	c #12B512",
" .	c #13AF13",
"..	c #92D792",
"+.	c #B8E3B8",
"@.	c #32A932",
"#.	c #1C9A1C",
"$.	c #559155",
"%.	c #3C7A3C",
"&.	c #99F599",
"*.	c #8CFA8C",
"=.	c #82F782",
"-.	c #79F379",
";.	c #6EEE6E",
">.	c #65EA65",
",.	c #5DE55D",
"'.	c #54DF54",
").	c #4AD84A",
"!.	c #37D037",
"~.	c #1AC31A",
"{.	c #0FBA0F",
"].	c #10B410",
"^.	c #11AE11",
"/.	c #83D283",
"(.	c #CCEBCC",
"_.	c #C8E8C8",
":.	c #B3DDB3",
"<.	c #339F33",
"[.	c #409B40",
"}.	c #397239",
"|.	c #69B169",
"1.	c #85FA85",
"2.	c #7CF67C",
"3.	c #73F273",
"4.	c #69ED69",
"5.	c #60E960",
"6.	c #57E457",
"7.	c #4DDE4D",
"8.	c #44D744",
"9.	c #26CC26",
"0.	c #0FC00F",
"a.	c #70CB70",
"b.	c #D2EDD2",
"c.	c #CDEACD",
"d.	c #C8E7C8",
"e.	c #C4E3C4",
"f.	c #5FAF5F",
"g.	c #1A861A",
"h.	c #558D55",
"i.	c #74CA74",
"j.	c #76F676",
"k.	c #6DF26D",
"l.	c #63ED63",
"m.	c #5AE85A",
"n.	c #51E351",
"o.	c #47DD47",
"p.	c #3DD63D",
"q.	c #18C918",
"r.	c #0EC00E",
"s.	c #5EC45E",
"t.	c #D7EFD7",
"u.	c #D3EDD3",
"v.	c #CEE9CE",
"w.	c #CAE6CA",
"x.	c #80BF80",
"y.	c #1B801B",
"z.	c #569056",
"A.	c #7DDC7D",
"B.	c #66F166",
"C.	c #5DEC5D",
"D.	c #54E854",
"E.	c #4BE24B",
"F.	c #38D538",
"G.	c #17C917",
"H.	c #4CBE4C",
"I.	c #DAF0DA",
"J.	c #D8EED8",
"K.	c #D3EBD3",
"L.	c #CFE8CF",
"M.	c #96CA96",
"N.	c #1C871C",
"O.	c #1D7A1D",
"P.	c #7CE97C",
"Q.	c #57EB57",
"R.	c #4EE74E",
"S.	c #45E145",
"T.	c #5FE15F",
"U.	c #EFFCEF",
"V.	c #93E593",
"W.	c #3DB83D",
"X.	c #D9F0D9",
"Y.	c #DDF1DD",
"Z.	c #D9EED9",
"`.	c #D4EAD4",
" +	c #AAD5AA",
".+	c #228A22",
"++	c #1E751E",
"@+	c #518E51",
"#+	c #73E473",
"$+	c #48E648",
"%+	c #3FE03F",
"&+	c #5DE15D",
"*+	c #FFFFFF",
"=+	c #8CDE8C",
"-+	c #30B430",
";+	c #D5EED5",
">+	c #E3F3E3",
",+	c #DEF0DE",
"'+	c #D9EDD9",
")+	c #BCDEBC",
"!+	c #2A8F2A",
"~+	c #1F6F1F",
"{+	c #528A52",
"]+	c #66CE66",
"^+	c #39DF39",
"/+	c #30D830",
"(+	c #A9ECA9",
"_+	c #FCFEFC",
":+	c #8BD88B",
"<+	c #24AF24",
"[+	c #CEECCE",
"}+	c #E8F5E8",
"|+	c #E4F3E4",
"1+	c #CCE5CC",
"2+	c #379537",
"3+	c #206920",
"4+	c #578857",
"5+	c #5DB65D",
"6+	c #2AD72A",
"7+	c #21D021",
"8+	c #1FCB1F",
"9+	c #C0EEC0",
"0+	c #F8FCF8",
"a+	c #DFF2DF",
"b+	c #EEF8EE",
"c+	c #E9F5E9",
"d+	c #E4F2E4",
"e+	c #D9ECD9",
"f+	c #469D46",
"g+	c #216321",
"h+	c #588758",
"i+	c #579F57",
"j+	c #1BCE1B",
"k+	c #12C712",
"l+	c #19BD19",
"m+	c #C9EEC9",
"n+	c #FDFEFD",
"o+	c #F9FCF9",
"p+	c #F3FAF3",
"q+	c #EFF8EF",
"r+	c #E3F1E3",
"s+	c #5AA85A",
"t+	c #578757",
"u+	c #37C537",
"v+	c #1FB31F",
"w+	c #D1EED1",
"x+	c #FEFFFE",
"y+	c #F4FAF4",
"z+	c #EFF7EF",
"A+	c #EAF5EA",
"B+	c #72B572",
"C+	c #467B46",
"D+	c #397139",
"E+	c #549A54",
"F+	c #16BC16",
"G+	c #13A913",
"H+	c #26AA26",
"I+	c #D8EFD8",
"J+	c #FAFDFA",
"K+	c #F0F7F0",
"L+	c #8DC38D",
"M+	c #286528",
"N+	c #54AF54",
"O+	c #14A314",
"P+	c #159D15",
"Q+	c #2DA12D",
"R+	c #DBEEDB",
"S+	c #F5FAF5",
"T+	c #A8D1A8",
"U+	c #1C801C",
"V+	c #5C8B5C",
"W+	c #42B142",
"X+	c #169716",
"Y+	c #189218",
"Z+	c #349A34",
"`+	c #A9D1A9",
" @	c #218321",
".@	c #4C7F4C",
"+@	c #198C19",
"                  . + @ @ + .                   ",
"            # $ % & * = - ; > , ' .             ",
"          + ) ! ~ { ] ^ / ( _ : < [ +           ",
"        } | 1 2 3 4 5 6 7 8 9 0 a b c d         ",
"      } e f g h i j k l m n o p q r s t u       ",
"    + v w x y z A B C D E F G H I J K L M +     ",
"  # N O P Q R S T U V W X Y Z `  ...+.@.#.$..   ",
"  %.&.*.=.-.;.>.,.'.).!.~.{.].^./.(._.:.<.[.}.  ",
"  |.1.2.3.4.5.6.7.8.9.0.{.].^.a.b.c.d.e.f.g.h.  ",
". i.j.k.l.m.n.o.p.q.r.{.].^.s.t.u.v.w.x.g.y.z.. ",
"+ A.B.C.D.E.7.F.G.r.{.].^.H.I.J.K.L.M.N.y.O.$.+ ",
"@ P.Q.R.S.T.U.V.r.{.].^.W.X.Y.Z.`. +.+y.O.++@+@ ",
"@ #+$+%+&+U.*+*+=+].^.-+;+>+,+'+)+!+y.O.++~+{+@ ",
"+ ]+^+/+(+*+*+*+_+:+<+[+}+|+,+1+2+y.O.++~+3+4++ ",
". 5+6+7+8+9+*+*+_+0+a+b+c+d+e+f+y.O.++~+3+g+h+. ",
"  i+j+k+r.l+m+*+n+o+p+q+c+r+s+y.O.++~+3+g++ t+  ",
"  ' u+r.{.].v+w+x+o+y+z+A+B+y.O.++~+3+g++ C+D+  ",
"  # E+F+].^.G+H+I+J+y+K+L+y.O.++~+3+g++ M+h+.   ",
"    + N+^.G+O+P+Q+R+S+T+U+O.++~+3+g++ + V++     ",
"      ' W+O+P+X+Y+Z+`+ @O.++~+3+g++ + .@D+      ",
"        u M #.Y++@g.y.O.++~+3+g++ M+V+D+        ",
"          + $.[.g.y.O.++~+3+g++ C+h++           ",
"            # }.h.z.$.@+{+4+h+t+D+.             ",
"                  . + @ @ + .                   "};
